#!OML:ASF F:\VICON\USERDATA\INSTALL\rory3\rory3.ASF
:FULLY-SPECIFIED
:DEGREES
9
root 0.5647761062577941 17.879501618711156 -24.168284411635682 -1.4026687910821045 2.906348543000956 1.8248870622285827
lfemur 7.077759841876829 0.39163568354827616 -26.68568785463791
ltibia 16.979609319881593
lfoot -15.96309041283428 -0.6291607390528688
ltoes -21.854683285932353
rfemur -29.253188663887087 1.3489025577830072 19.429811748463862
rtibia 22.933708428758266
rfoot -4.730123622779358 -15.607780396702903
rtoes -0.40694455561798115
lowerback 11.01490021805873 -1.1597909197963814 -4.516866726627057
upperback 0.34168523714929844 -2.026749548943129 1.415804945343704
thorax -5.61708076820452 -0.8590947588410245 4.35542872927719
lowerneck -16.671598013114806 -2.6421489660834947 -2.0237690366313497
upperneck 21.214402616368172 -3.2019687610374445 0.2580024833474237
head 9.491422884264892 -1.62657922082529 0.009986956384598233
lclavicle 2.9911137004836096e-16 5.5314558565054924e-17
lhumerus -21.47551502493791 1.0657147288732713 81.47029741265216
lradius 28.640894099367248
lwrist 10.441191483312856
lhand -29.742899069236252 22.470593135486308
lfingers 7.125020000000001
lthumb -3.0692090695272336 52.4282930931617
rclavicle 2.9911137004836096e-16 5.5314558565054924e-17
rhumerus -35.755392017701396 -26.21788993532583 -73.34230871049513
rradius 21.892613346426693
rwrist 8.841566764967022
rhand -16.50801156197623 24.272292859508678
rfingers 7.125020000000001
rthumb 9.710038446187141 -5.483867505632133
10
root 0.5395939002296812 17.81430553057149 -23.456184655862387 -1.4370285521808892 3.666705778498959 1.8983868542314344
lfemur 10.07628896626876 -0.370902871602955 -26.62618816372682
ltibia 16.194109257495736
lfoot -15.68009033534507 -0.7295545984652692
ltoes -21.361083820943186
rfemur -26.986890919784038 4.973151338731553 17.799014337255738
rtibia 14.774311513563529
rfoot -10.23219714153986 -16.21477868228824
rtoes -9.164225322537376
lowerback 11.16619852477086 -1.4505689846765517 -4.884845474133799
upperback 0.16836647734701266 -2.460107668059222 1.5898826551247163
thorax -5.816816762504309 -1.049817987801628 4.825076944203424
lowerneck -16.394701432071013 -2.7696758446448415 -2.2920042588032414
upperneck 21.50719899656851 -3.3477168097355143 0.3786172179108922
head 9.552301045322967 -1.7039462938262295 0.07858771994426494
lclavicle 2.991113927867489e-16 5.5314560222021066e-17
lhumerus -21.210915847061028 -0.39382381536074407 82.11719458131734
lradius 28.003095388146317
lwrist 8.875345860270723
lhand -32.83258327520291 15.785206153603687
lfingers 7.125020000000001
lthumb -6.052623295518667 45.67880628881759
rclavicle 2.991113927867489e-16 5.5314560222021066e-17
rhumerus -36.915090114333445 -26.442389219573812 -72.53391037526923
rradius 21.781513375651528
rwrist 9.141106227549093
rhand -18.111798935305554 21.812302995616136
rfingers 7.125020000000001
rthumb 8.162481070226496 -8.010076958776072
11
root 0.49330432965366666 17.74880945246558 -22.751985293219477 -1.2335199775676606 3.8505851034274334 1.438797953628658
lfemur 11.086886936244394 -1.3919733534127656 -25.906489350432338
ltibia 18.512208504305228
lfoot -18.03638762258964 0.4940915083546922
ltoes -31.780472531955024
rfemur -26.7909907078852 2.973657511771492 19.64411141070046
rtibia 15.534611972381231
rfoot -9.265448391760291 -11.762390777090708
rtoes -8.376815673263785
lowerback 11.2342977750024 -1.7104971964876916 -5.007185358579125
upperback -0.4386316100548638 -2.804856289559206 2.0908161044460933
thorax -6.4303444916838295 -1.172266790717769 5.505464355786707
lowerneck -14.787521265230234 -2.469663154634448 -2.6961170498667784
upperneck 21.109603894987067 -2.864643258519659 0.3569294027589984
head 9.11579421138307 -1.5208932347585336 0.22345247201606827
lclavicle 2.99111398122821e-16 5.531453812921209e-17
lhumerus -21.990014349743646 0.11757724132582315 82.53049272310157
lradius 28.478494587505022
lwrist 9.10939514736284
lhand -31.43609041530907 16.98470370803772
lfingers 7.125020000000001
lthumb -4.704260474526521 46.912503854211394
rclavicle 2.99111398122821e-16 5.531453812921209e-17
rhumerus -38.52988734223657 -26.97258845842307 -70.73861477752027
rradius 20.893115565499638
rwrist 10.040583638758612
rhand -18.265497708221467 21.84530283649668
rfingers 7.125020000000001
rthumb 8.01409227425868 -7.982717087169907
12
root 0.43359118770845034 17.752209252604306 -21.986686390917967 -1.6774768969476002 3.9903945907435006 0.9961383052681536
lfemur 12.78208562919141 -2.515788388205846 -25.1463907344043
ltibia 21.069106782747724
lfoot -15.401991053294989 -3.8946784872918427
ltoes -10.34479708201762
rfemur -26.8218907349355 1.8001911566086692 21.486408789202873
rtibia 21.111208705961477
rfoot -5.9896222625732545 -10.216395079185032
rtoes -7.180387200813294
lowerback 11.214697992521067 -1.6612575187462264 -4.874915668195827
upperback -0.31188271397763123 -2.708566748394829 2.249504060029949
thorax -6.294617206784094 -1.1348972131090824 5.579383878590771
lowerneck -14.764121680603585 -2.613809638096904 -2.464401176929856
upperneck 21.223902481458932 -3.0513407603237583 0.045105312344188464
head 9.144693349135594 -1.6241093068856387 0.05520351167074605
lclavicle 2.9911139470966875e-16 5.5314546413965966e-17
lhumerus -22.009314575585368 -0.071490433865538 82.99919067976244
lradius 27.8592957853882
lwrist 6.80479159154644
lhand -32.801083451228465 13.336110711133408
lfingers 7.125020000000001
lthumb -6.022163489290336 43.23051112957178
rclavicle 2.9911139470966875e-16 5.5314546413965966e-17
rhumerus -39.65708591126423 -28.56808580778786 -69.41261801913582
rradius 20.365316614961053
rwrist 10.87988168401107
rhand -18.344497087508298 22.152401556923245
rfingers 7.125020000000001
rthumb 7.937822918417375 -7.6785483582488405
13
root 0.3825147900929607 17.83760413169907 -21.189185285075478 -2.1884132510429586 4.067544329488627 0.09088322828826012
lfemur 12.792286480785823 -4.018081692069458 -24.14549233273571
ltibia 26.181803494888527
lfoot -11.588394924958228 -5.9722751413119335
ltoes -14.952791794797909
rfemur -26.227291612432793 2.150940056348124 22.645606958743365
rtibia 24.739607636495567
rfoot -3.651725195502997 -9.87146588774089
rtoes -2.0164643516863725
lowerback 11.19769818472945 -1.6287877957479333 -3.8493480236621105
upperback -0.19425661419009677 -2.523947365404638 2.304983315190485
thorax -6.222918642538068 -1.0809776786969532 5.02103613495892
lowerneck -15.38021395260294 -2.577690562147078 -2.2228454823427435
upperneck 21.873094510238605 -3.0838303528504416 0.18940316877753927
head 9.483423128480139 -1.602190147117577 0.047311338582415235
lclavicle 2.991114325909969e-16 5.5314566297543084e-17
lhumerus -22.743113054127942 0.4435808315539158 83.34908911640522
lradius 28.051695282265214
lwrist 5.993013809281604
lhand -32.811883538116376 12.65331219398864
lfingers 7.125020000000001
lthumb -6.032603374157194 42.54741241459526
rclavicle 2.991114325909969e-16 5.5314566297543084e-17
rhumerus -40.329484647934464 -31.225381430602038 -67.81362238612536
rradius 18.98651936663612
rwrist 12.8512762890874
rhand -18.98409201580631 21.22330545293639
rfingers 7.125020000000001
rthumb 7.320487972176396 -8.63005439131873
14
root 0.3528767114356034 17.89890045650972 -20.36878756604466 -2.5538406863480656 3.199307513850619 -0.9158401805309702
lfemur 10.41628844491607 -2.967116338117456 -22.41869507751683
ltibia 34.349298921363726
lfoot -4.452672637247502 -10.166088840866156
ltoes -20.075085626251976
rfemur -24.84129255674423 1.2463128889843778 24.638103504859927
rtibia 27.665005056965374
rfoot -4.63617388705587 -6.848004184508662
rtoes 0.3022344895218667
lowerback 10.546205455355297 -1.4952187475021348 -2.683691125632472
upperback -0.1290632165341607 -2.1719288430210844 2.4596012746104723
thorax -5.861395877697448 -0.9531628915136194 4.436438466999374
lowerneck -15.39571377291596 -2.6003499593637094 -2.110887485158965
upperneck 22.47228707903443 -3.1188899168202227 0.06061172954531102
head 9.693446786647138 -1.6246292738521408 -0.025223432722882244
lclavicle 2.991113170002809e-16 5.531459115191577e-17
lhumerus -24.69770950940327 1.5621838329114466 83.70198763093724
lradius 28.53769452569517
lwrist 6.149323375465388
lhand -33.35418066979502 16.374604978100837
lfingers 7.125020000000001
lthumb -6.556110778710769 46.25320507882139
rclavicle 2.991113170002809e-16 5.531459115191577e-17
rhumerus -41.20068287950083 -33.72277629170624 -65.89142663665756
rradius 17.871321262012493
rwrist 15.949768414666432
rhand -17.509503679224796 21.91530255364498
rfingers 7.125020000000001
rthumb 8.743676298664461 -7.883567522423102
15
root 0.297787436561426 18.003394194619137 -19.575585860848438 -3.2829255370203487 2.6558793286784996 -1.6714530814972421
lfemur 6.818220799729645 -1.3648435107117485 -20.333798257694852
ltibia 42.94529344863331
lfoot 8.480192780682572 -15.279080442975307
ltoes -16.38809002447418
rfemur -21.971993985768094 1.2614228200609303 26.094401179742132
rtibia 28.82830521474488
rfoot -5.702852630130559 -7.13579334128974
rtoes 3.4424984441260547
lowerback 10.589204969966977 -1.0498116245979219 -1.8994831817407956
upperback 0.672328077946915 -1.4887918291921662 2.440061563975795
thorax -5.124610652536967 -0.6646395617741184 3.8493906174577743
lowerneck -17.859683314011967 -2.963081097662806 -1.673235286336825
upperneck 23.009580543045836 -3.6609526166815956 -0.07769022138988602
head 10.34487713928558 -1.8413210751579825 -0.2625042924637822
lclavicle 2.9911141240040457e-16 5.5314565745221456e-17
lhumerus -24.99490902569464 1.4643140892142221 84.22968544152356
lradius 29.048693328462747
lwrist 6.74101172750365
lhand -32.32738582168564 22.00489412088859
lfingers 7.125020000000001
lthumb -5.564825952618663 51.91179410903024
rclavicle 2.9911141240040457e-16 5.5314565745221456e-17
rhumerus -39.72788561108629 -33.64687718260714 -67.66852217966972
rradius 18.560520327486586
rwrist 14.643371772441546
rhand -17.48900385651865 21.530904096594842
rfingers 7.125020000000001
rthumb 8.76343614960352 -8.267175897470391
